HIERARCHY
ROOT hip
{
	OFFSET 0.000000 0.000000 0.000000 
	CHANNELS 6 Xposition Yposition Zposition Xrotation Zrotation Yrotation
	JOINT abdomen
	{
		OFFSET 0.000000 3.402643 0.000000 
		CHANNELS 3 Xrotation Zrotation Yrotation
		JOINT chest
		{
			OFFSET 0.000000 8.438565 -0.680529 
			CHANNELS 3 Xrotation Zrotation Yrotation
			JOINT neck
			{
				OFFSET 0.000000 10.207942 -0.272212 
				CHANNELS 3 Xrotation Zrotation Yrotation
				JOINT head
				{
					OFFSET 0.000000 3.130431 0.000000 
					CHANNELS 3 Xrotation Zrotation Yrotation
					End Site
					{
						OFFSET 0.000000 3.130435 0.000000 
					}
				}
			}
			JOINT lCollar
			{
				OFFSET 3.470700 6.669187 -0.816635 
				CHANNELS 3 Yrotation Zrotation Xrotation
				JOINT lShldr
				{
					OFFSET 3.198488 0.000000 0.000000 
					CHANNELS 3 Zrotation Yrotation Xrotation
					JOINT lForeArm
					{
						OFFSET 10.139888 0.000000 0.000000 
						CHANNELS 3 Yrotation Zrotation Xrotation
						JOINT lHand
						{
							OFFSET 8.370511 0.000000 0.000000 
							CHANNELS 3 Zrotation Yrotation Xrotation
							End Site
							{
								OFFSET 4.083176 0.000000 0.000000 
							}
						}
					}
				}
			}
			JOINT rCollar
			{
				OFFSET -3.470700 6.669187 -0.816635 
				CHANNELS 3 Yrotation Zrotation Xrotation
				JOINT rShldr
				{
					OFFSET -3.198488 0.000000 0.000000 
					CHANNELS 3 Zrotation Yrotation Xrotation
					JOINT rForeArm
					{
						OFFSET -10.139888 0.000000 0.000000 
						CHANNELS 3 Yrotation Zrotation Xrotation
						JOINT rHand
						{
							OFFSET -8.370511 0.000000 0.000000 
							CHANNELS 3 Zrotation Yrotation Xrotation
							End Site
							{
								OFFSET -4.083176 0.000000 0.000000 
							}
						}
					}
				}
			}
		}
	}
	JOINT lThigh
	{
		OFFSET 5.308129 -1.633274 1.361059 
		CHANNELS 3 Xrotation Zrotation Yrotation
		JOINT lShin
		{
			OFFSET -2.041588 -20.007561 0.000000 
			CHANNELS 3 Xrotation Zrotation Yrotation
			JOINT lFoot
			{
				OFFSET 0.000000 -19.190928 -1.224953 
				CHANNELS 3 Xrotation Yrotation Zrotation
				End Site
				{
					OFFSET 0.000000 -2.449906 4.627600 
				}
			}
		}
	}
	JOINT rThigh
	{
		OFFSET -5.308129 -1.633274 1.361059 
		CHANNELS 3 Xrotation Zrotation Yrotation
		JOINT rShin
		{
			OFFSET 2.041588 -20.007561 0.000000 
			CHANNELS 3 Xrotation Zrotation Yrotation
			JOINT rFoot
			{
				OFFSET 0.000000 -19.190928 -1.224953 
				CHANNELS 3 Xrotation Yrotation Zrotation
				End Site
				{
					OFFSET 0.000000 -2.449906 4.627600 
				}
			}
		}
	}
}
MOTION
Frames: 13
Frame Time: 0.016667
-3.880971 43.070385 -5.923292 18.920099 -2.808620 9.887100 -10.742300 4.568930 0.426783 11.648300 1.244570 0.322559 -9.360829 11.528173 -13.306828 9.318920 10.433700 -4.739050 2.000000 -2.000000 0.000000 -109.777000 -42.896198 -137.621994 66.670502 -0.268992 0.125590 0.075327 -0.079226 -166.511993 -2.000000 2.000000 0.000000 -102.646004 144.800003 6.087680 -82.871597 0.231815 0.135667 -0.055020 -0.014119 -131.873001 -42.410221 1.792496 -0.997418 31.413921 1.930908 2.690805 -3.985056 -5.180468 0.068745 -43.266056 -0.726307 -3.399615 42.614227 -1.489332 -3.415692 -13.432238 -13.694097 -5.021572 
-3.872670 43.050152 -5.833050 18.443501 -2.964780 9.880730 -10.917900 4.410940 0.219368 11.638600 1.215600 0.229230 -11.582542 10.381876 -13.324732 8.439300 10.692300 -4.791980 2.000000 -2.000000 0.000000 -108.926003 -41.881100 -137.942993 66.826698 -0.268650 0.125737 0.080135 -0.096916 -169.822006 -2.000000 2.000000 0.000000 -102.709999 147.378006 6.388350 -86.074699 0.224208 0.136404 -0.056426 -0.015668 -127.801003 -42.078342 1.965823 -1.274964 31.883070 1.940994 2.692208 -4.346677 -4.946889 0.024105 -42.720615 -0.512670 -3.619955 42.713165 -1.484331 -3.439850 -13.606302 -13.688401 -5.087864 
-3.861211 43.035450 -5.732217 17.927700 -3.112960 9.803920 -11.084300 4.334640 0.064377 11.618900 1.273420 0.151358 -14.014732 8.958106 -13.262192 7.448730 10.940700 -4.846020 2.000000 -2.000000 0.000000 -108.328003 -40.719200 -138.042007 67.227097 -0.267770 0.126110 -179.923996 -179.904007 6.379110 -2.000000 2.000000 0.000000 -102.947998 149.850006 6.645910 -89.414597 0.216246 0.136718 -0.059034 -0.028529 -123.112999 -41.713181 2.169416 -1.534251 32.479057 1.962807 2.703822 -4.820926 -4.680257 -0.019901 -42.105053 -0.296894 -3.852737 42.790928 -1.482867 -3.427379 -13.825083 -13.618465 -5.114387 
-3.844630 43.023720 -5.626517 17.391701 -3.224770 9.664350 -11.289600 4.271500 -0.055890 11.540500 1.340660 0.080321 -16.575541 7.359248 -13.088726 6.357130 11.197100 -4.907310 2.000000 -2.000000 0.000000 -107.817001 -39.371498 -138.014999 67.871597 -0.266349 0.126697 -179.916000 -179.895004 2.306840 -2.000000 2.000000 0.000000 -103.098999 152.136993 7.397270 -92.851997 0.208532 0.117037 -0.059433 -0.030120 -122.527000 -41.251514 2.398228 -1.719310 32.959770 1.968104 2.743062 -5.233188 -4.445662 -0.073540 -41.528446 -0.079634 -4.077157 42.995548 -1.498082 -3.427118 -14.056487 -13.481425 -5.108331 
-3.822230 43.008255 -5.520807 16.884600 -3.317690 9.462390 -11.563100 4.184800 -0.185984 11.374200 1.388240 0.010056 -19.076870 5.729072 -12.781672 5.263600 11.440100 -4.948850 2.000000 -2.000000 0.000000 -107.316002 -37.847900 -137.929993 68.779800 -0.264335 0.127498 -179.908005 -179.876999 -1.872830 -2.000000 2.000000 0.000000 76.956703 25.857700 -171.026001 -96.025803 0.201522 0.116493 -0.056690 -0.017260 -127.224998 -40.870296 2.628082 -1.821028 33.575623 1.991274 2.764709 -5.735246 -4.174859 -0.113772 -40.914726 0.131524 -4.256223 43.044289 -1.501040 -3.426851 -14.217924 -13.316878 -5.107985 
-3.797009 42.988537 -5.414536 16.426399 -3.409950 9.170620 -11.875400 4.077690 -0.343784 11.188300 1.464590 -0.085272 -21.442610 4.197485 -12.355481 4.188130 11.669400 -4.966070 2.000000 -2.000000 0.000000 -106.766998 -36.178101 -138.007004 69.951698 -0.261718 0.128483 -179.899994 -179.878998 -5.984190 -2.000000 2.000000 0.000000 77.110001 24.173000 -168.919998 -98.545303 0.195985 0.115785 -0.054626 -0.008555 -133.865005 -40.476925 2.914084 -1.842306 34.075348 1.991391 2.782310 -6.176771 -3.884283 -0.140240 -40.372295 0.379681 -4.392378 43.112549 -1.504111 -3.426013 -14.359879 -13.131642 -5.084590 
-3.769633 42.966496 -5.307117 16.017000 -3.501530 8.819260 -12.147800 3.936380 -0.480404 11.090500 1.493070 -0.160942 -23.516348 2.851912 -11.915928 3.250660 11.855900 -4.972660 2.000000 -2.000000 0.000000 -106.374001 -34.469898 -138.410004 71.191902 -0.258927 0.129467 0.107216 -0.127137 170.666000 -2.000000 2.000000 0.000000 77.302597 22.781500 -166.848007 -99.971100 0.192867 0.115277 -0.054429 0.003145 -138.044998 -40.163853 3.213117 -1.803732 34.710812 2.013263 2.803348 -6.708861 -3.610414 -0.174823 -39.878498 0.649247 -4.517169 43.160679 -1.515341 -3.419121 -14.512537 -12.931707 -5.054087 
-3.736111 42.942390 -5.198834 15.607500 -3.583880 8.452250 -12.399800 3.748500 -0.575630 11.042000 1.415810 -0.198137 -25.152697 1.785776 -11.572753 2.531810 11.971600 -4.985390 2.000000 -2.000000 0.000000 -106.305000 -32.840801 -139.399002 71.953697 -0.257203 0.130041 0.110763 -0.129791 169.084000 -2.000000 2.000000 0.000000 77.534698 21.595900 -165.151001 -100.195999 0.192377 0.115190 -0.054415 0.002298 -137.742004 -39.786987 3.528799 -1.752239 35.220615 2.014400 2.830842 -7.172259 -3.307337 -0.181538 -39.384113 0.891262 -4.621924 43.209938 -1.513379 -3.426656 -14.665514 -12.705553 -5.028633 
-3.694973 42.913124 -5.088833 15.207500 -3.656740 8.078540 -12.631900 3.542790 -0.634545 11.023100 1.252000 -0.210199 -26.343500 1.051708 -11.353611 2.052240 12.047700 -4.999390 2.000000 -2.000000 0.000000 -106.530998 -31.388700 -141.061996 71.836502 -0.257468 0.129954 0.110255 -0.139186 169.309006 -2.000000 2.000000 0.000000 77.767197 20.489599 -163.932999 -99.922302 0.192973 0.115296 -0.054543 -0.006807 -134.490005 -39.426033 3.816481 -1.650685 35.760571 2.005677 2.864430 -7.642912 -3.020843 -0.203842 -38.907169 1.099801 -4.736079 43.308403 -1.511286 -3.442421 -14.842834 -12.430002 -4.991126 
-3.651632 42.878445 -4.978247 14.807100 -3.710800 7.652190 -12.874300 3.380250 -0.632936 10.994300 1.117080 -0.197902 -27.092690 0.601817 -11.253435 1.802300 12.095100 -5.015180 2.000000 -2.000000 0.000000 -106.864998 -30.191601 -143.192993 70.947800 -0.259478 0.129278 0.108762 -0.128312 169.973007 -2.000000 2.000000 0.000000 77.863197 19.354700 -163.028000 -99.980904 0.192845 0.115274 -0.055008 -0.013983 -131.921997 -39.119450 4.108131 -1.526347 36.456276 2.009549 2.898430 -8.193714 -2.710077 -0.204253 -38.472637 1.307057 -4.784516 43.445713 -1.502697 -3.444848 -15.002603 -12.141519 -4.934172 
-3.607608 42.838745 -4.867111 14.425500 -3.717240 7.178810 -13.098100 3.293190 -0.566824 10.975000 1.030350 -0.164127 -27.488621 0.299821 -11.236257 1.722340 12.104400 -5.002640 2.000000 -2.000000 0.000000 -107.160004 -29.307301 -145.455002 69.707603 -0.262265 0.128282 0.109331 -0.128738 169.718994 -2.000000 2.000000 0.000000 77.754204 18.229700 -162.171005 -100.664001 0.191355 0.115002 -0.054926 -0.013002 -132.272995 -38.763660 4.388780 -1.293448 37.013981 2.013025 2.905977 -8.641131 -2.433677 -0.214717 -38.072292 1.498994 -4.744164 43.661777 -1.498453 -3.466023 -15.207181 -11.880968 -4.896019 
-3.560942 42.792339 -4.759693 14.063000 -3.694770 6.730850 -13.312900 3.270270 -0.494528 10.984800 1.020750 -0.123266 -27.693411 0.043459 -11.202835 1.702430 12.094500 -4.977050 2.000000 -2.000000 0.000000 -107.202003 -28.696400 -147.625000 68.379402 -0.265224 0.127149 0.112609 -0.131112 168.274002 -2.000000 2.000000 0.000000 77.450104 17.270500 -161.238998 -101.690002 0.189126 0.114562 -0.054503 -0.005796 -134.850998 -38.433380 4.609453 -1.069427 37.602531 2.008027 2.939209 -9.078051 -2.139705 -0.214955 -37.722126 1.650914 -4.677024 43.896160 -1.511109 -3.473664 -15.407862 -11.646605 -4.869551 
-3.510041 42.734978 -4.661723 13.719700 -3.643300 6.386530 -13.391600 3.311460 -0.469050 11.033500 1.059420 -0.109325 -27.787954 -0.250085 -11.089205 1.692700 12.055400 -4.918940 2.000000 -2.000000 0.000000 -106.891998 -28.241301 -149.529999 67.188004 -0.267856 0.126074 0.117200 -0.134232 166.291000 -2.000000 2.000000 0.000000 76.901901 16.574900 -160.244003 -102.714996 0.186906 0.114082 -0.054412 0.002051 -137.654007 -38.189590 4.735225 -0.929983 38.279018 2.011043 2.982704 -9.573322 -1.827218 -0.215801 -37.403252 1.738668 -4.585249 44.219475 -1.497676 -3.478640 -15.647977 -11.481898 -4.876316 
